<svg xmlns="http://www.w3.org/2000/svg" viewBox="0 0 282 282"><defs><style>.cls-1{fill:#f1f1f2;}.cls-2{fill:#e6e7e8;}</style></defs><title>logo mockup</title><g id="MOOG"><rect class="cls-1" width="282" height="282"/><path class="cls-2" d="M67,161.07H90.08v3.27H63.15V117.66H67Z"/><path class="cls-2" d="M129.75,144.82q0,9-5,14.62T111.5,165q-8.2,0-13.09-5.57t-4.89-14.62v-7.6q0-9,4.87-14.62T111.47,117q8.34,0,13.31,5.61t5,14.62Zm-3.82-7.64q0-7.58-3.83-12.2t-10.63-4.63q-6.68,0-10.39,4.63t-3.72,12.2v7.67q0,7.65,3.74,12.27t10.4,4.62q6.84,0,10.63-4.6t3.8-12.29Z"/><path class="cls-2" d="M173.16,158.79a14.2,14.2,0,0,1-5.73,4.25A24.25,24.25,0,0,1,157,165a17.52,17.52,0,0,1-13.36-5.54q-5.21-5.55-5.21-14.37v-8.56q0-8.65,5-14.1A16.52,16.52,0,0,1,156.2,117q7.53,0,11.78,3.76a14.81,14.81,0,0,1,4.92,9.8l-.06.19h-3.56a13.18,13.18,0,0,0-3.95-7.58q-3.11-2.91-9.13-2.9a12.57,12.57,0,0,0-10.12,4.55q-3.83,4.55-3.83,11.66v8.61a17.63,17.63,0,0,0,4.07,12A13.43,13.43,0,0,0,157,161.74a21.46,21.46,0,0,0,7.9-1.29,10.56,10.56,0,0,0,4.44-2.83V145.46H156.9v-3.27h16.26Z"/><path class="cls-2" d="M218.85,144.82q0,9-5,14.62T200.6,165q-8.21,0-13.09-5.57t-4.89-14.62v-7.6q0-9,4.87-14.62T200.57,117q8.34,0,13.31,5.61t5,14.62ZM215,137.18q0-7.58-3.83-12.2t-10.63-4.63q-6.66,0-10.39,4.63t-3.72,12.2v7.67q0,7.65,3.74,12.27t10.4,4.62q6.84,0,10.63-4.6t3.8-12.29Z"/><polygon class="cls-2" points="17.08 15.67 104.97 103.56 102.15 103.56 15.67 17.08 15.67 15.67 17.08 15.67"/><polygon class="cls-2" points="266.34 264.93 266.34 266.34 264.93 266.34 177.04 178.45 179.86 178.45 266.34 264.93"/><polygon class="cls-2" points="102.16 178.45 104.98 178.45 17.08 266.34 15.67 266.34 15.67 264.93 102.16 178.45"/><polygon class="cls-2" points="266.34 15.67 266.34 17.08 179.87 103.56 177.05 103.56 264.93 15.67 266.34 15.67"/></g></svg>